<?xml version="1.0" encoding="utf-8"?>
<!-- Generator: Adobe Illustrator 16.0.0, SVG Export Plug-In . SVG Version: 6.00 Build 0)  -->
<!DOCTYPE svg PUBLIC "-//W3C//DTD SVG 1.1//EN" "http://www.w3.org/Graphics/SVG/1.1/DTD/svg11.dtd">
<svg version="1.1" id="Layer_1" xmlns="http://www.w3.org/2000/svg" xmlns:xlink="http://www.w3.org/1999/xlink" x="0px" y="0px"
	 width="612px" height="792px" viewBox="0 0 612 792" enable-background="new 0 0 612 792" xml:space="preserve">
<title>logoYahStar</title>
<path fill="#8DB647" d="M79.173,475.174C35.447,475.174,0,439.727,0,396c0-43.726,35.447-79.173,79.173-79.173
	c43.727,0,79.174,35.447,79.174,79.173C158.296,439.705,122.879,475.123,79.173,475.174z M79.173,323.595
	c-39.988,0-72.405,32.417-72.405,72.405s32.417,72.405,72.405,72.405c39.988,0,72.405-32.417,72.405-72.405l0,0
	C151.541,356.028,119.146,323.633,79.173,323.595z"/>
<path fill="#8DB647" d="M218.896,409.836v41.44h-11.856v-41.44l-31.61-62.021h12.847l24.611,49.613h0.276l24.426-49.613h12.847
	L218.896,409.836z"/>
<path fill="#8DB647" d="M306.426,447.455c-1.566,0.837-3.199,1.546-4.88,2.117c-2.053,0.714-4.153,1.283-6.285,1.704
	c-2.287,0.46-4.673,0.844-7.16,1.151c-2.421,0.3-4.858,0.454-7.298,0.46c-10.191,0-17.812-2.103-22.861-6.308
	c-5.074-4.264-7.874-10.646-7.574-17.267c-0.241-4.762,1.147-9.464,3.937-13.33c2.72-3.42,6.26-6.097,10.291-7.781
	c4.608-1.941,9.455-3.258,14.412-3.914c5.372-0.768,10.875-1.289,16.507-1.565v-5.848c0-5.725-1.643-9.654-4.927-11.788
	c-3.818-2.28-8.22-3.393-12.663-3.2c-3.629,0.03-7.24,0.509-10.751,1.428c-3.231,0.786-6.377,1.889-9.393,3.292l-2.993-8.449
	c3.468-1.556,7.065-2.804,10.751-3.729c4.42-1.149,8.97-1.722,13.537-1.704c3.773-0.04,7.535,0.417,11.188,1.358
	c3.186,0.811,6.161,2.294,8.726,4.351c2.499,2.074,4.424,4.752,5.594,7.781c1.354,3.683,2.003,7.588,1.911,11.511L306.426,447.455z
	 M295.467,410.965c-4.098,0.322-8.196,0.667-12.294,1.035c-3.745,0.288-7.437,1.062-10.981,2.303
	c-3.029,1.054-5.75,2.841-7.919,5.203c-2.166,2.67-3.257,6.053-3.062,9.485c-0.173,4.161,1.596,8.167,4.789,10.843
	c3.192,2.671,8.02,4.006,14.481,4.006c2.901-0.002,5.796-0.248,8.656-0.736c2.183-0.289,4.319-0.862,6.354-1.704L295.467,410.965z"
	/>
<path fill="#8DB647" d="M369.507,451.3v-51.847c0-5.725-1.643-9.945-4.927-12.662c-3.876-2.907-8.654-4.351-13.491-4.075
	c-2.726,0.01-5.438,0.397-8.058,1.151c-2.544,0.69-4.978,1.736-7.229,3.108V451.3h-11.512V339.089h11.512v38.447
	c2.599-1.392,5.349-2.481,8.195-3.246c3.058-0.854,6.218-1.289,9.394-1.289c8.564,0,15.302,2.164,20.213,6.492
	c4.912,4.328,7.367,10.674,7.367,19.039V451.3H369.507z"/>
<path fill="#8DB647" d="M451.098,423.166c0.098,4.236-0.687,8.446-2.302,12.363c-1.536,3.578-3.849,6.771-6.769,9.347
	c-3.053,2.646-6.597,4.664-10.43,5.94c-4.364,1.447-8.939,2.155-13.537,2.095c-4.471,0.011-8.928-0.491-13.283-1.497
	c-3.702-0.769-7.265-2.097-10.567-3.937l4.121-10.751c2.72,1.512,5.61,2.694,8.61,3.522c3.479,1.007,7.083,1.511,10.705,1.496
	c5.561,0.28,11.05-1.344,15.563-4.604c4.031-3.198,6.269-8.146,6.009-13.284c0.048-2.387-0.465-4.753-1.496-6.906
	c-1.014-2.044-2.413-3.873-4.121-5.387c-1.766-1.577-3.714-2.937-5.802-4.053c-2.179-1.182-4.481-2.31-6.906-3.384
	c-3.069-1.442-6.14-2.978-9.209-4.604c-3.01-1.648-5.802-3.667-8.311-6.009c-2.478-2.315-4.514-5.062-6.01-8.104
	c-1.612-3.456-2.4-7.238-2.302-11.051c-0.033-3.999,0.75-7.963,2.302-11.649c1.4-3.43,3.557-6.5,6.309-8.979
	c2.809-2.468,6.08-4.354,9.623-5.548c4.017-1.326,8.227-1.972,12.455-1.911c4.219-0.045,8.424,0.481,12.501,1.565
	c3.246,0.822,6.351,2.125,9.209,3.868l-3.982,10.13c-2.395-1.382-4.935-2.494-7.574-3.315c-3.126-1.039-6.398-1.568-9.692-1.566
	c-4.973-0.213-9.861,1.327-13.813,4.352c-3.646,3.049-5.635,7.642-5.364,12.386c-0.051,2.36,0.513,4.692,1.635,6.769
	c1.133,2.004,2.604,3.795,4.351,5.295c1.908,1.644,4.002,3.058,6.239,4.213c2.349,1.228,4.712,2.425,7.091,3.591
	c2.84,1.305,5.732,2.771,8.68,4.397c2.919,1.604,5.619,3.577,8.034,5.87c2.401,2.329,4.359,5.075,5.779,8.104
	C450.433,415.458,451.204,419.299,451.098,423.166z"/>
<path fill="#8DB647" d="M490.949,451.783c-1.461,0.241-2.939,0.356-4.42,0.345c-5.26,0.31-10.417-1.545-14.274-5.134
	c-3.423-3.423-5.134-8.672-5.134-15.747v-47.979H456.37v-9.001h10.751v-18.579l10.959-3.845v22.401h16.115v9.001H478.08v47.472
	c-0.313,3.164,0.922,6.285,3.314,8.38c2.263,1.691,5.027,2.575,7.851,2.51c1.661,0.058,3.317-0.2,4.881-0.76v10.037
	C493.11,451.319,492.042,451.621,490.949,451.783z"/>
<path fill="#8DB647" d="M559.878,447.455c-1.566,0.837-3.199,1.546-4.881,2.117c-2.053,0.714-4.153,1.283-6.285,1.704
	c-2.287,0.46-4.674,0.844-7.16,1.151c-2.421,0.3-4.858,0.454-7.298,0.46c-10.191,0-17.812-2.103-22.861-6.308
	c-5.073-4.264-7.873-10.646-7.574-17.267c-0.24-4.762,1.147-9.464,3.938-13.33c2.72-3.42,6.259-6.097,10.29-7.781
	c4.608-1.941,9.455-3.258,14.412-3.914c5.372-0.768,10.874-1.289,16.507-1.565v-5.848c0-5.725-1.642-9.654-4.927-11.788
	c-3.817-2.28-8.219-3.393-12.662-3.2c-3.629,0.03-7.24,0.509-10.751,1.428c-3.231,0.786-6.378,1.889-9.394,3.292l-2.992-8.449
	c3.447-1.528,7.021-2.753,10.682-3.661c4.42-1.149,8.971-1.722,13.537-1.704c3.773-0.04,7.535,0.417,11.189,1.358
	c3.186,0.811,6.16,2.294,8.725,4.351c2.473,2.06,4.382,4.714,5.549,7.712c1.354,3.683,2.002,7.588,1.911,11.511L559.878,447.455z
	 M548.988,410.965c-4.098,0.322-8.196,0.667-12.294,1.035c-3.75,0.264-7.449,1.015-11.005,2.233c-3.029,1.054-5.75,2.841-7.92,5.203
	c-2.165,2.671-3.257,6.053-3.062,9.485c-0.173,4.162,1.597,8.168,4.789,10.844c3.192,2.67,8.019,4.006,14.48,4.006
	c2.901-0.002,5.797-0.249,8.656-0.737c2.184-0.289,4.319-0.861,6.354-1.703V410.965z"/>
<path fill="#8DB647" d="M609.836,383.269c-1.074-0.184-2.156-0.322-3.246-0.414c-1.09-0.092-2.195-0.138-3.315-0.138
	c-2.568-0.004-5.132,0.204-7.666,0.622c-2.188,0.326-4.325,0.938-6.354,1.819V451.3h-11.511v-73.211
	c3.882-1.753,7.952-3.051,12.133-3.868c4.892-1.014,9.876-1.515,14.872-1.497c1.351,0,2.64,0.046,3.867,0.138
	c1.229,0.092,2.379,0.23,3.454,0.414L609.836,383.269z"/>
<polygon fill="#8DB647" points="76.042,397.013 76.042,397.013 82.305,394.987 "/>
<path fill="#8DB647" d="M87.715,450.379c1.968,2.874,5.895,3.608,8.769,1.64c1.759-1.204,2.791-3.216,2.742-5.347v-24.956
	c0.005-1.081-0.867-1.961-1.947-1.966c-0.214-0.001-0.428,0.033-0.631,0.101l-22.539,7.321c-1.03,0.327-1.6,1.428-1.272,2.458
	c0.063,0.2,0.159,0.389,0.282,0.559L87.715,450.379z"/>
<path fill="#8DB647" d="M99.134,345.328c0.079-3.483-2.681-6.37-6.164-6.449c-2.131-0.048-4.143,0.983-5.347,2.742l-14.55,20.167
	c-0.636,0.874-0.442,2.098,0.432,2.733c0.169,0.124,0.358,0.219,0.558,0.282l22.516,7.321c1.025,0.343,2.134-0.209,2.478-1.234
	c0.068-0.204,0.102-0.417,0.101-0.631L99.134,345.328z"/>
<path fill="#8DB647" d="M103.508,411.126l4.121-1.336l24.012-7.805c3.306-1.099,5.095-4.67,3.995-7.976
	c-0.627-1.887-2.108-3.368-3.995-3.995l-28.087-9.209h-0.208l-39.759-12.938h-0.276l-28.087-9.208
	c-3.314-1.076-6.872,0.739-7.947,4.053c-0.624,1.923-0.288,4.028,0.902,5.662l17.359,23.897c1.605,2.21,1.605,5.203,0,7.413
	l-17.382,23.92c-2.081,2.795-1.502,6.746,1.292,8.827c1.686,1.255,3.886,1.588,5.867,0.889l28.087-9.209l0,0l40.104-13.03V411.126z"
	/>
</svg>
