<?xml version="1.0" encoding="utf-8"?>
<!-- Generator: Adobe Illustrator 16.0.3, SVG Export Plug-In . SVG Version: 6.00 Build 0)  -->
<!DOCTYPE svg PUBLIC "-//W3C//DTD SVG 1.1//EN" "http://www.w3.org/Graphics/SVG/1.1/DTD/svg11.dtd">
<svg version="1.1" id="Layer_1" xmlns="http://www.w3.org/2000/svg" xmlns:xlink="http://www.w3.org/1999/xlink" x="0px" y="0px"
	 width="612px" height="158.348px" viewBox="0 316.827 612 158.348" enable-background="new 0 316.827 612 158.348"
	 xml:space="preserve">
<title>logoYahStar</title>
<path fill="#8DB647" d="M79.173,475.175C35.447,475.175,0,439.727,0,396c0-43.726,35.446-79.173,79.173-79.173
	s79.174,35.447,79.174,79.173C158.296,439.705,122.879,475.123,79.173,475.175z M79.173,323.595
	c-39.988,0-72.405,32.417-72.405,72.404c0,39.988,32.417,72.405,72.405,72.405s72.405-32.417,72.405-72.405l0,0
	C151.541,356.028,119.146,323.633,79.173,323.595z"/>
<path fill="#8DB647" d="M218.896,409.836v41.44H207.04v-41.44l-31.61-62.021h12.847l24.611,49.613h0.276l24.426-49.613h12.847
	L218.896,409.836z"/>
<path fill="#8DB647" d="M306.426,447.455c-1.566,0.838-3.199,1.547-4.88,2.117c-2.054,0.714-4.153,1.283-6.285,1.704
	c-2.287,0.46-4.673,0.844-7.16,1.151c-2.421,0.3-4.857,0.454-7.298,0.46c-10.191,0-17.813-2.104-22.861-6.309
	c-5.073-4.264-7.874-10.646-7.573-17.267c-0.241-4.762,1.146-9.464,3.937-13.33c2.72-3.42,6.26-6.097,10.291-7.781
	c4.608-1.941,9.455-3.258,14.412-3.914c5.372-0.768,10.875-1.289,16.507-1.564v-5.849c0-5.725-1.643-9.653-4.927-11.788
	c-3.818-2.279-8.22-3.393-12.663-3.199c-3.629,0.029-7.24,0.509-10.751,1.428c-3.231,0.786-6.377,1.889-9.394,3.292l-2.992-8.449
	c3.468-1.556,7.064-2.804,10.751-3.729c4.42-1.149,8.97-1.723,13.536-1.704c3.773-0.04,7.535,0.417,11.188,1.357
	c3.186,0.812,6.161,2.294,8.726,4.352c2.499,2.073,4.424,4.752,5.594,7.78c1.354,3.684,2.003,7.589,1.911,11.512L306.426,447.455z
	 M295.467,410.965c-4.098,0.322-8.196,0.667-12.294,1.035c-3.745,0.288-7.438,1.063-10.981,2.304
	c-3.028,1.054-5.75,2.841-7.919,5.202c-2.166,2.671-3.257,6.054-3.062,9.485c-0.173,4.161,1.596,8.167,4.789,10.843
	c3.191,2.672,8.02,4.007,14.48,4.007c2.901-0.002,5.796-0.248,8.656-0.736c2.183-0.289,4.319-0.862,6.354-1.704L295.467,410.965z"/>
<path fill="#8DB647" d="M369.507,451.301v-51.848c0-5.725-1.644-9.945-4.928-12.662c-3.876-2.907-8.653-4.351-13.49-4.075
	c-2.727,0.011-5.438,0.397-8.059,1.151c-2.544,0.69-4.978,1.736-7.229,3.108v64.325h-11.513V339.089h11.513v38.447
	c2.599-1.392,5.349-2.48,8.194-3.246c3.059-0.854,6.219-1.289,9.395-1.289c8.563,0,15.302,2.164,20.213,6.492
	c4.912,4.328,7.367,10.674,7.367,19.039v52.769H369.507z"/>
<path fill="#8DB647" d="M451.098,423.166c0.098,4.236-0.688,8.446-2.302,12.363c-1.536,3.578-3.85,6.771-6.77,9.348
	c-3.053,2.646-6.597,4.663-10.43,5.939c-4.364,1.447-8.939,2.155-13.537,2.095c-4.471,0.012-8.928-0.49-13.283-1.497
	c-3.702-0.769-7.265-2.097-10.566-3.937l4.12-10.751c2.721,1.512,5.61,2.694,8.61,3.521c3.479,1.008,7.083,1.512,10.705,1.496
	c5.561,0.28,11.05-1.344,15.563-4.604c4.03-3.198,6.269-8.146,6.009-13.284c0.048-2.387-0.465-4.753-1.496-6.906
	c-1.015-2.044-2.413-3.873-4.121-5.387c-1.766-1.577-3.714-2.938-5.802-4.054c-2.18-1.182-4.481-2.31-6.906-3.384
	c-3.069-1.441-6.14-2.978-9.209-4.604c-3.01-1.648-5.802-3.667-8.312-6.009c-2.478-2.315-4.514-5.063-6.01-8.104
	c-1.612-3.456-2.399-7.238-2.302-11.051c-0.033-3.999,0.75-7.963,2.302-11.649c1.4-3.43,3.558-6.5,6.31-8.979
	c2.809-2.468,6.079-4.354,9.623-5.548c4.017-1.326,8.227-1.973,12.454-1.911c4.22-0.045,8.425,0.48,12.501,1.564
	c3.246,0.822,6.352,2.125,9.209,3.868l-3.981,10.13c-2.396-1.382-4.936-2.494-7.574-3.314c-3.126-1.039-6.397-1.568-9.692-1.566
	c-4.973-0.213-9.86,1.327-13.813,4.353c-3.646,3.049-5.635,7.642-5.364,12.386c-0.051,2.359,0.514,4.691,1.636,6.769
	c1.133,2.004,2.604,3.795,4.351,5.295c1.908,1.645,4.002,3.059,6.239,4.213c2.349,1.229,4.712,2.426,7.091,3.592
	c2.84,1.305,5.731,2.771,8.68,4.396c2.919,1.604,5.619,3.577,8.034,5.87c2.401,2.329,4.359,5.075,5.779,8.104
	C450.433,415.458,451.203,419.299,451.098,423.166z"/>
<path fill="#8DB647" d="M490.948,451.783c-1.461,0.241-2.938,0.356-4.42,0.346c-5.26,0.31-10.417-1.546-14.273-5.135
	c-3.424-3.423-5.135-8.672-5.135-15.747v-47.979h-10.751v-9.001h10.751v-18.579l10.959-3.846v22.401h16.115v9.001h-16.115v47.473
	c-0.313,3.164,0.923,6.285,3.314,8.38c2.263,1.69,5.027,2.575,7.851,2.51c1.661,0.058,3.317-0.2,4.882-0.76v10.037
	C493.11,451.319,492.041,451.621,490.948,451.783z"/>
<path fill="#8DB647" d="M559.878,447.455c-1.566,0.838-3.199,1.547-4.882,2.117c-2.053,0.714-4.152,1.283-6.284,1.704
	c-2.287,0.46-4.675,0.844-7.16,1.151c-2.421,0.3-4.858,0.454-7.298,0.46c-10.191,0-17.813-2.104-22.861-6.309
	c-5.073-4.264-7.873-10.646-7.574-17.267c-0.24-4.762,1.147-9.464,3.938-13.33c2.72-3.42,6.259-6.097,10.29-7.781
	c4.607-1.941,9.455-3.258,14.412-3.914c5.371-0.768,10.874-1.289,16.507-1.564v-5.849c0-5.725-1.643-9.653-4.927-11.788
	c-3.817-2.279-8.22-3.393-12.662-3.199c-3.629,0.029-7.24,0.509-10.751,1.428c-3.231,0.786-6.378,1.889-9.395,3.292l-2.992-8.449
	c3.447-1.528,7.021-2.753,10.683-3.661c4.42-1.148,8.971-1.722,13.537-1.704c3.772-0.04,7.534,0.417,11.188,1.358
	c3.187,0.811,6.16,2.294,8.726,4.351c2.473,2.061,4.382,4.714,5.549,7.712c1.354,3.684,2.002,7.588,1.911,11.512L559.878,447.455z
	 M548.988,410.965c-4.098,0.322-8.196,0.667-12.294,1.035c-3.75,0.265-7.449,1.016-11.005,2.233c-3.029,1.054-5.75,2.841-7.92,5.203
	c-2.165,2.671-3.257,6.053-3.063,9.485c-0.173,4.161,1.598,8.168,4.789,10.844c3.192,2.67,8.02,4.006,14.48,4.006
	c2.901-0.002,5.797-0.249,8.656-0.737c2.184-0.289,4.318-0.86,6.354-1.703v-30.366H548.988z"/>
<path fill="#8DB647" d="M609.836,383.269c-1.074-0.185-2.156-0.322-3.246-0.414s-2.195-0.139-3.315-0.139
	c-2.567-0.004-5.132,0.204-7.666,0.622c-2.188,0.326-4.325,0.938-6.354,1.819v66.143h-11.512v-73.212
	c3.883-1.753,7.952-3.051,12.134-3.867c4.892-1.015,9.876-1.516,14.871-1.497c1.352,0,2.641,0.046,3.867,0.138
	c1.229,0.092,2.379,0.229,3.454,0.414L609.836,383.269z"/>
<polygon fill="#8DB647" points="76.042,397.013 76.042,397.013 82.305,394.987 "/>
<path fill="#8DB647" d="M87.715,450.38c1.968,2.874,5.895,3.607,8.769,1.64c1.76-1.204,2.791-3.216,2.742-5.347v-24.956
	c0.005-1.081-0.867-1.962-1.947-1.967c-0.214-0.001-0.428,0.033-0.631,0.102l-22.539,7.321c-1.029,0.327-1.6,1.428-1.271,2.458
	c0.063,0.199,0.159,0.389,0.282,0.559L87.715,450.38z"/>
<path fill="#8DB647" d="M99.134,345.328c0.079-3.482-2.681-6.37-6.164-6.449c-2.131-0.048-4.143,0.983-5.347,2.742l-14.551,20.167
	c-0.636,0.874-0.441,2.099,0.433,2.733c0.169,0.124,0.357,0.219,0.558,0.282l22.517,7.32c1.024,0.343,2.134-0.209,2.478-1.233
	c0.068-0.204,0.103-0.417,0.102-0.632L99.134,345.328z"/>
<path fill="#8DB647" d="M103.508,411.126l4.121-1.336l24.012-7.805c3.306-1.099,5.095-4.67,3.995-7.977
	c-0.627-1.887-2.108-3.367-3.995-3.994l-28.087-9.209h-0.208l-39.759-12.938h-0.276l-28.087-9.208
	c-3.313-1.076-6.872,0.739-7.947,4.053c-0.624,1.924-0.288,4.028,0.902,5.662l17.359,23.897c1.604,2.21,1.604,5.203,0,7.413
	l-17.383,23.92c-2.08,2.795-1.502,6.746,1.293,8.827c1.686,1.255,3.886,1.588,5.866,0.889l28.087-9.209l0,0l40.104-13.03v0.045
	H103.508z"/>
</svg>
