<?xml version="1.0" standalone="no"?>
<!DOCTYPE svg PUBLIC "-//W3C//DTD SVG 20010904//EN"
 "http://www.w3.org/TR/2001/REC-SVG-20010904/DTD/svg10.dtd">
<svg version="1.0" xmlns="http://www.w3.org/2000/svg"
 width="300.000000pt" height="300.000000pt" viewBox="0 0 300.000000 300.000000"
 preserveAspectRatio="xMidYMid meet">
<metadata>
Created by potrace 1.11, written by Peter Selinger 2001-2013
</metadata>
<g transform="translate(0.000000,300.000000) scale(0.100000,-0.100000)"
fill="#000000" stroke="none">
<path d="M1350 2993 c-213 -30 -338 -67 -500 -145 -434 -210 -727 -594 -826
-1083 -26 -125 -25 -403 0 -530 81 -401 288 -728 604 -954 179 -128 343 -200
572 -252 123 -28 404 -35 525 -14 119 22 133 25 215 50 407 126 732 408 917
795 42 86 95 241 109 315 4 22 9 47 11 55 18 76 25 415 9 490 -4 19 -14 68
-22 108 -43 208 -162 451 -303 622 -186 223 -464 411 -711 481 -25 7 -49 14
-55 15 -111 32 -217 46 -360 48 -88 2 -171 1 -185 -1z m390 -144 c431 -76 804
-358 995 -754 179 -371 183 -802 10 -1172 -225 -481 -706 -790 -1237 -796
-667 -6 -1242 480 -1363 1153 -15 81 -14 336 1 430 95 599 583 1077 1169 1146
28 4 52 8 54 10 12 11 281 -1 371 -17z"/>
<path d="M1715 2570 c-11 -4 -30 -18 -41 -31 -36 -40 -294 -403 -294 -414 0
-5 4 -15 8 -21 11 -18 450 -156 472 -149 22 7 21 -17 21 327 0 169 -3 212 -16
237 -26 51 -95 74 -150 51z"/>
<path d="M575 2198 c-49 -29 -74 -93 -55 -142 5 -14 86 -132 180 -260 93 -129
174 -246 179 -260 12 -30 5 -72 -16 -106 -9 -14 -87 -122 -173 -240 -185 -254
-172 -234 -177 -279 -6 -52 29 -101 84 -117 41 -12 52 -9 370 95 378 124 654
214 668 217 6 1 64 20 130 42 66 22 242 79 390 127 392 126 378 120 404 165
15 27 20 48 16 71 -13 72 -32 86 -181 135 -60 19 -203 66 -319 104 -115 37
-358 116 -540 175 -181 59 -453 147 -603 196 -271 89 -319 99 -357 77z"/>
<path d="M1815 1043 c-63 -16 -410 -135 -421 -144 -27 -22 -36 -7 212 -351 84
-117 108 -134 177 -125 31 4 49 14 70 38 l27 33 0 266 c0 300 0 299 -65 283z"/>
</g>
</svg>
